<svg xmlns="http://www.w3.org/2000/svg" width="1280" height="1280" viewBox="0 0 1280 1280" version="1.1"><path d="M 596 5.089 C 459.907 14.593, 331.316 67.312, 226.461 156.591 C 207.480 172.752, 173.147 207.084, 156.694 226.357 C 81.079 314.925, 31.693 420.485, 12.508 534.544 C 5.815 574.329, 4.545 591.230, 4.545 640.500 C 4.545 689.770, 5.815 706.671, 12.508 746.456 C 41.805 920.636, 142.050 1074.394, 290.140 1172.297 C 381.739 1232.853, 485.696 1267.923, 597.500 1275.983 C 615.537 1277.283, 665.463 1277.283, 683.500 1275.983 C 795.304 1267.923, 899.261 1232.853, 990.860 1172.297 C 1138.976 1074.377, 1239.190 920.667, 1268.492 746.456 C 1275.142 706.924, 1276.444 689.716, 1276.470 641 C 1276.494 595.335, 1275.746 583.110, 1270.869 549.500 C 1253.372 428.907, 1202.884 317.988, 1123.162 225 C 1107.488 206.717, 1072.810 172.147, 1054.539 156.591 C 949.042 66.766, 820.908 14.492, 683 5.016 C 666.251 3.865, 612.881 3.910, 596 5.089 M 602.500 23.564 C 524.468 29.187, 455.695 46.086, 387.985 76.273 C 265.981 130.665, 163.240 225.393, 98.691 343 C 54.333 423.820, 30.316 507.216, 23.526 604 C 21.613 631.258, 21.612 648.104, 23.522 675.591 C 29.800 765.974, 50.742 843.353, 89.533 919.500 C 132.651 1004.141, 194.160 1077.389, 269.500 1133.811 C 358.312 1200.321, 459.537 1240.553, 570.500 1253.443 C 588.842 1255.573, 626.116 1258, 640.500 1258 C 663.287 1258, 699.113 1255.131, 729 1250.912 C 865.361 1231.664, 994.876 1164.215, 1089.361 1063.244 C 1182.730 963.465, 1239.129 840.889, 1253.966 705.500 C 1255.845 688.358, 1257.983 653.440, 1257.977 640 C 1257.971 626.119, 1255.888 591.833, 1254.029 575 C 1248.926 528.800, 1240.089 488.371, 1225.502 444.500 C 1185.984 325.639, 1111.067 221.684, 1010.500 146.160 C 921.418 79.262, 817.563 38.356, 705.500 26.028 C 669.990 22.121, 634.351 21.269, 602.500 23.564 M 608.500 130.591 C 606.300 130.801, 598.875 131.455, 592 132.045 C 501.678 139.793, 407.925 175.932, 334.698 231.228 C 313.730 247.062, 299.109 259.834, 279.471 279.471 C 238.485 320.458, 208.843 361.528, 183.101 412.994 C 153.756 471.665, 136.198 535.721, 131.033 602.950 C 129.705 620.239, 129.705 659.761, 131.033 677.050 C 136.418 747.140, 155.084 813.064, 186.948 874.531 C 211.848 922.563, 240.342 961.361, 279.484 1000.529 C 320.478 1041.550, 361.424 1071.105, 412.994 1096.899 C 453.196 1117.006, 493.923 1130.941, 539 1140.012 C 593.107 1150.901, 648.395 1153.059, 703 1146.414 C 759.077 1139.589, 815.680 1122.491, 867.032 1096.864 C 918.316 1071.271, 959.522 1041.535, 1000.529 1000.529 C 1041.515 959.542, 1071.157 918.472, 1096.899 867.006 C 1120.670 819.479, 1136.764 768.145, 1144.870 714 C 1148.776 687.904, 1149.500 676.338, 1149.500 640 C 1149.500 603.630, 1148.772 592.014, 1144.861 566 C 1136.220 508.517, 1119.682 457.055, 1093.603 406.500 C 1068.509 357.853, 1039.997 318.940, 1000.529 279.471 C 959.522 238.465, 918.316 208.729, 867.032 183.136 C 813.064 156.204, 755.597 139.372, 694 132.457 C 680.378 130.928, 619.021 129.589, 608.500 130.591 M 746.095 260.751 C 742.023 268.313, 733.653 283.950, 727.495 295.500 C 713.099 322.504, 672.091 399.240, 657.220 427 C 650.885 438.825, 642.228 455.025, 637.982 463 C 633.736 470.975, 624.847 487.625, 618.228 500 C 611.610 512.375, 602.604 529.250, 598.214 537.500 C 590.568 551.872, 589.967 552.686, 583.867 556.944 C 568.824 567.445, 554.638 584.709, 548.050 600.534 C 541.802 615.543, 540.627 621.807, 540.649 640 C 540.665 653.300, 541.061 657.998, 542.690 664.223 L 544.712 671.946 537.482 701.223 C 530.695 728.705, 523.900 756.496, 495.479 873 C 489.106 899.125, 479.169 939.794, 473.397 963.376 C 467.624 986.958, 463.036 1006.947, 463.201 1007.797 C 463.399 1008.819, 473.652 1013.207, 493.500 1020.763 C 510 1027.045, 524.184 1032.393, 525.019 1032.648 C 526.120 1032.985, 528.492 1029.449, 533.637 1019.806 C 537.542 1012.488, 545.971 996.712, 552.368 984.750 C 558.766 972.787, 569.234 953.212, 575.631 941.250 C 582.028 929.287, 590.736 912.975, 594.982 905 C 599.228 897.025, 609.811 877.225, 618.500 861 C 627.189 844.775, 637.772 824.975, 642.018 817 C 646.264 809.025, 655.153 792.375, 661.772 780 C 668.390 767.625, 677.396 750.750, 681.786 742.500 C 689.432 728.128, 690.033 727.314, 696.133 723.056 C 705.289 716.664, 717.932 703.727, 723.756 694.790 C 729.605 685.814, 734.188 675.287, 737.282 663.719 C 740.279 652.515, 740.297 627.458, 737.316 615.923 L 735.358 608.347 743.048 576.923 C 747.277 559.641, 755.786 524.800, 761.955 499.500 C 782.242 416.309, 795.964 360.133, 806.616 316.663 C 812.390 293.103, 816.975 273.117, 816.807 272.249 C 816.600 271.184, 806.427 266.831, 785.500 258.852 C 768.450 252.352, 754.275 247.026, 754 247.017 C 753.725 247.008, 750.168 253.189, 746.095 260.751" stroke="none" fill="#fbfbfb" fill-rule="evenodd"/><path d="M 602.500 23.564 C 524.468 29.187, 455.695 46.086, 387.985 76.273 C 265.981 130.665, 163.240 225.393, 98.691 343 C 54.333 423.820, 30.316 507.216, 23.526 604 C 21.613 631.258, 21.612 648.104, 23.522 675.591 C 29.800 765.974, 50.742 843.353, 89.533 919.500 C 132.651 1004.141, 194.160 1077.389, 269.500 1133.811 C 358.312 1200.321, 459.537 1240.553, 570.500 1253.443 C 588.842 1255.573, 626.116 1258, 640.500 1258 C 663.287 1258, 699.113 1255.131, 729 1250.912 C 865.361 1231.664, 994.876 1164.215, 1089.361 1063.244 C 1182.730 963.465, 1239.129 840.889, 1253.966 705.500 C 1255.845 688.358, 1257.983 653.440, 1257.977 640 C 1257.971 626.119, 1255.888 591.833, 1254.029 575 C 1248.926 528.800, 1240.089 488.371, 1225.502 444.500 C 1185.984 325.639, 1111.067 221.684, 1010.500 146.160 C 921.418 79.262, 817.563 38.356, 705.500 26.028 C 669.990 22.121, 634.351 21.269, 602.500 23.564 M 608.500 130.591 C 606.300 130.801, 598.875 131.455, 592 132.045 C 501.678 139.793, 407.925 175.932, 334.698 231.228 C 313.730 247.062, 299.109 259.834, 279.471 279.471 C 238.485 320.458, 208.843 361.528, 183.101 412.994 C 153.756 471.665, 136.198 535.721, 131.033 602.950 C 129.705 620.239, 129.705 659.761, 131.033 677.050 C 136.418 747.140, 155.084 813.064, 186.948 874.531 C 211.848 922.563, 240.342 961.361, 279.484 1000.529 C 320.478 1041.550, 361.424 1071.105, 412.994 1096.899 C 453.196 1117.006, 493.923 1130.941, 539 1140.012 C 593.107 1150.901, 648.395 1153.059, 703 1146.414 C 759.077 1139.589, 815.680 1122.491, 867.032 1096.864 C 918.316 1071.271, 959.522 1041.535, 1000.529 1000.529 C 1041.515 959.542, 1071.157 918.472, 1096.899 867.006 C 1120.670 819.479, 1136.764 768.145, 1144.870 714 C 1148.776 687.904, 1149.500 676.338, 1149.500 640 C 1149.500 603.630, 1148.772 592.014, 1144.861 566 C 1136.220 508.517, 1119.682 457.055, 1093.603 406.500 C 1068.509 357.853, 1039.997 318.940, 1000.529 279.471 C 959.522 238.465, 918.316 208.729, 867.032 183.136 C 813.064 156.204, 755.597 139.372, 694 132.457 C 680.378 130.928, 619.021 129.589, 608.500 130.591 M 746.095 260.751 C 742.023 268.313, 733.653 283.950, 727.495 295.500 C 713.099 322.504, 672.091 399.240, 657.220 427 C 650.885 438.825, 642.228 455.025, 637.982 463 C 633.736 470.975, 624.847 487.625, 618.228 500 C 611.610 512.375, 602.604 529.250, 598.214 537.500 C 590.568 551.872, 589.967 552.686, 583.867 556.944 C 568.824 567.445, 554.638 584.709, 548.050 600.534 C 541.802 615.543, 540.627 621.807, 540.649 640 C 540.665 653.300, 541.061 657.998, 542.690 664.223 L 544.712 671.946 537.482 701.223 C 530.695 728.705, 523.900 756.496, 495.479 873 C 489.106 899.125, 479.169 939.794, 473.397 963.376 C 467.624 986.958, 463.036 1006.947, 463.201 1007.797 C 463.399 1008.819, 473.652 1013.207, 493.500 1020.763 C 510 1027.045, 524.184 1032.393, 525.019 1032.648 C 526.120 1032.985, 528.492 1029.449, 533.637 1019.806 C 537.542 1012.488, 545.971 996.712, 552.368 984.750 C 558.766 972.787, 569.234 953.212, 575.631 941.250 C 582.028 929.287, 590.736 912.975, 594.982 905 C 599.228 897.025, 609.811 877.225, 618.500 861 C 627.189 844.775, 637.772 824.975, 642.018 817 C 646.264 809.025, 655.153 792.375, 661.772 780 C 668.390 767.625, 677.396 750.750, 681.786 742.500 C 689.432 728.128, 690.033 727.314, 696.133 723.056 C 705.289 716.664, 717.932 703.727, 723.756 694.790 C 729.605 685.814, 734.188 675.287, 737.282 663.719 C 740.279 652.515, 740.297 627.458, 737.316 615.923 L 735.358 608.347 743.048 576.923 C 747.277 559.641, 755.786 524.800, 761.955 499.500 C 782.242 416.309, 795.964 360.133, 806.616 316.663 C 812.390 293.103, 816.975 273.117, 816.807 272.249 C 816.600 271.184, 806.427 266.831, 785.500 258.852 C 768.450 252.352, 754.275 247.026, 754 247.017 C 753.725 247.008, 750.168 253.189, 746.095 260.751" stroke="none" fill="#040404" fill-rule="evenodd"/></svg>
